<?xml version="1.0" encoding="utf-8"?>
<!-- Generator: Adobe Illustrator 24.1.2, SVG Export Plug-In . SVG Version: 6.00 Build 0)  -->
<svg version="1.1" id="Capa_1" xmlns="http://www.w3.org/2000/svg" xmlns:xlink="http://www.w3.org/1999/xlink" x="0px" y="0px"
	 width="20.7px" height="25.6px" viewBox="0 0 20.7 25.6" style="enable-background:new 0 0 20.7 25.6;" xml:space="preserve">
<style type="text/css">
	.st0{fill:#878787;}
	.st1{fill-rule:evenodd;clip-rule:evenodd;fill:#878787;}
</style>
<path class="st0" d="M6.6,10.1c0.4,0,0.8,0.3,0.8,0.8v9.2c0,0.4-0.3,0.8-0.8,0.8c-0.4,0-0.8-0.3-0.8-0.8v-9.2
	C5.8,10.5,6.2,10.1,6.6,10.1z M10.5,10.1c0.4,0,0.8,0.3,0.8,0.8v9.2c0,0.4-0.3,0.8-0.8,0.8s-0.8-0.3-0.8-0.8v-9.2
	C9.7,10.5,10,10.1,10.5,10.1z M15.1,10.9c0-0.4-0.3-0.8-0.8-0.8s-0.8,0.3-0.8,0.8v9.2c0,0.4,0.3,0.8,0.8,0.8s0.8-0.3,0.8-0.8V10.9z"
	/>
<path class="st1" d="M20.5,6.3c0,0.8-0.7,1.5-1.5,1.5h-0.8v13.8c0,1.7-1.4,3.1-3.1,3.1H5.8c-1.7,0-3.1-1.4-3.1-3.1V7.8H2
	c-0.8,0-1.5-0.7-1.5-1.5V4.7c0-0.8,0.7-1.5,1.5-1.5h5.4c0-0.8,0.7-1.5,1.5-1.5H12c0.8,0,1.5,0.7,1.5,1.5h5.4c0.8,0,1.5,0.7,1.5,1.5
	V6.3z M4.5,7.8L4.3,7.9v13.8c0,0.8,0.7,1.5,1.5,1.5h9.2c0.8,0,1.5-0.7,1.5-1.5V7.9l-0.2-0.1H4.5z M2,6.3V4.7h16.9v1.5H2z"/>
</svg>
